<svg width="1200" height="700" viewBox="0 0 1200 700" fill="none" xmlns="http://www.w3.org/2000/svg" role="img" aria-labelledby="title desc">
  <title id="title">FixFlow product illustration v3</title>
  <desc id="desc">A polished, modern dashboard illustration with cards, charts, and a workflow panel.</desc>
  <defs>
    <linearGradient id="bg" x1="100" y1="50" x2="1100" y2="650" gradientUnits="userSpaceOnUse">
      <stop stop-color="#F8FAFC"/>
      <stop offset="1" stop-color="#EEF4FF"/>
    </linearGradient>
    <linearGradient id="shell" x1="180" y1="120" x2="1020" y2="580" gradientUnits="userSpaceOnUse">
      <stop stop-color="#FFFFFF"/>
      <stop offset="1" stop-color="#F8FBFF"/>
    </linearGradient>
    <linearGradient id="nav" x1="140" y1="92" x2="1060" y2="92" gradientUnits="userSpaceOnUse">
      <stop stop-color="#0F172A"/>
      <stop offset="1" stop-color="#1E293B"/>
    </linearGradient>
    <linearGradient id="accent" x1="0" y1="0" x2="1" y2="1">
      <stop stop-color="#38BDF8"/>
      <stop offset="1" stop-color="#2563EB"/>
    </linearGradient>
    <filter id="shadow" x="0" y="0" width="1200" height="700" filterUnits="userSpaceOnUse">
      <feDropShadow dx="0" dy="18" stdDeviation="28" flood-color="#0F172A" flood-opacity="0.11"/>
    </filter>
  </defs>

  <rect width="1200" height="700" rx="28" fill="url(#bg)"/>
  <circle cx="160" cy="118" r="110" fill="#DBEAFE" fill-opacity="0.75"/>
  <circle cx="1030" cy="600" r="150" fill="#CFFAFE" fill-opacity="0.5"/>

  <g filter="url(#shadow)">
    <rect x="120" y="82" width="960" height="536" rx="30" fill="url(#shell)"/>
  </g>

  <rect x="120" y="82" width="960" height="72" rx="30" fill="url(#nav)"/>
  <circle cx="164" cy="118" r="7" fill="#EF4444"/>
  <circle cx="188" cy="118" r="7" fill="#F59E0B"/>
  <circle cx="212" cy="118" r="7" fill="#10B981"/>
  <rect x="460" y="104" width="280" height="28" rx="14" fill="#0F172A" fill-opacity="0.52" stroke="#334155"/>
  <rect x="482" y="113" width="152" height="10" rx="5" fill="#CBD5E1"/>
  <circle cx="832" cy="118" r="16" fill="#334155"/>
  <path d="M825 118H839" stroke="white" stroke-width="3.5" stroke-linecap="round"/>
  <path d="M832 111V125" stroke="white" stroke-width="3.5" stroke-linecap="round"/>

  <rect x="154" y="184" width="210" height="388" rx="24" fill="#0F172A"/>
  <text x="186" y="230" fill="white" font-size="26" font-weight="700" font-family="Arial, sans-serif">FixFlow</text>
  <text x="186" y="258" fill="#94A3B8" font-size="14" font-family="Arial, sans-serif">Project workflow</text>

  <rect x="186" y="294" width="146" height="16" rx="8" fill="#334155"/>
  <rect x="186" y="330" width="110" height="16" rx="8" fill="#334155"/>
  <rect x="186" y="366" width="128" height="16" rx="8" fill="#334155"/>
  <rect x="186" y="402" width="96" height="16" rx="8" fill="#334155"/>

  <rect x="186" y="456" width="146" height="78" rx="18" fill="#111827" stroke="#1F2937"/>
  <rect x="206" y="482" width="92" height="10" rx="5" fill="#E2E8F0"/>
  <rect x="206" y="504" width="70" height="10" rx="5" fill="#94A3B8"/>

  <rect x="392" y="184" width="304" height="150" rx="24" fill="#FFFFFF" stroke="#E2E8F0"/>
  <rect x="420" y="214" width="112" height="16" rx="8" fill="#0F172A"/>
  <rect x="420" y="246" width="176" height="12" rx="6" fill="#94A3B8"/>
  <rect x="420" y="278" width="240" height="16" rx="8" fill="#E2E8F0"/>
  <rect x="420" y="278" width="164" height="16" rx="8" fill="url(#accent)"/>
  <rect x="610" y="210" width="60" height="60" rx="18" fill="#DBEAFE"/>
  <path d="M628 240L640 252L658 228" stroke="#2563EB" stroke-width="5" stroke-linecap="round" stroke-linejoin="round"/>

  <rect x="724" y="184" width="332" height="150" rx="24" fill="#0F172A" stroke="#1E293B"/>
  <rect x="756" y="216" width="118" height="16" rx="8" fill="#FFFFFF"/>
  <rect x="756" y="248" width="190" height="12" rx="6" fill="#94A3B8"/>
  <rect x="756" y="280" width="236" height="16" rx="8" fill="#334155"/>
  <rect x="756" y="280" width="160" height="16" rx="8" fill="#38BDF8"/>
  <circle cx="976" cy="236" r="30" fill="#2563EB" fill-opacity="0.2"/>

  <rect x="392" y="356" width="304" height="216" rx="24" fill="#FFFFFF" stroke="#E2E8F0"/>
  <rect x="420" y="388" width="120" height="16" rx="8" fill="#0F172A"/>
  <rect x="420" y="424" width="220" height="12" rx="6" fill="#94A3B8"/>
  <rect x="420" y="450" width="256" height="96" rx="18" fill="#F8FAFC" stroke="#E2E8F0"/>
  <rect x="450" y="486" width="96" height="14" rx="7" fill="#2563EB"/>
  <rect x="450" y="514" width="156" height="10" rx="5" fill="#CBD5E1"/>
  <rect x="450" y="534" width="128" height="10" rx="5" fill="#E2E8F0"/>

  <rect x="724" y="356" width="332" height="216" rx="24" fill="#FFFFFF" stroke="#E2E8F0"/>
  <rect x="756" y="388" width="144" height="16" rx="8" fill="#0F172A"/>
  <rect x="756" y="422" width="264" height="14" rx="7" fill="#E2E8F0"/>
  <rect x="756" y="422" width="190" height="14" rx="7" fill="#10B981"/>
  <rect x="756" y="450" width="264" height="14" rx="7" fill="#E2E8F0"/>
  <rect x="756" y="450" width="146" height="14" rx="7" fill="#2563EB"/>
  <rect x="756" y="478" width="264" height="14" rx="7" fill="#E2E8F0"/>
  <rect x="756" y="478" width="214" height="14" rx="7" fill="#38BDF8"/>
  <rect x="756" y="506" width="264" height="14" rx="7" fill="#E2E8F0"/>
  <rect x="756" y="506" width="166" height="14" rx="7" fill="#64748B"/>

  <rect x="154" y="592" width="902" height="8" rx="4" fill="#CBD5E1" fill-opacity="0.8"/>
</svg>
