<svg width="256" height="256" viewBox="0 0 256 256" fill="none" xmlns="http://www.w3.org/2000/svg">
  <defs>
    <linearGradient id="bg" x1="26" y1="18" x2="230" y2="238" gradientUnits="userSpaceOnUse">
      <stop stop-color="#F8FAFC"/>
      <stop offset="1" stop-color="#D9E8FF"/>
    </linearGradient>
    <linearGradient id="desk" x1="38" y1="150" x2="218" y2="230" gradientUnits="userSpaceOnUse">
      <stop stop-color="#1E293B"/>
      <stop offset="1" stop-color="#0F172A"/>
    </linearGradient>
    <linearGradient id="screen" x1="72" y1="62" x2="184" y2="162" gradientUnits="userSpaceOnUse">
      <stop stop-color="#111827"/>
      <stop offset="1" stop-color="#1E3A8A"/>
    </linearGradient>
    <linearGradient id="glow" x1="78" y1="70" x2="164" y2="150" gradientUnits="userSpaceOnUse">
      <stop stop-color="#38BDF8" stop-opacity="0.95"/>
      <stop offset="1" stop-color="#2563EB" stop-opacity="0.75"/>
    </linearGradient>
    <filter id="shadow" x="0" y="0" width="256" height="256" filterUnits="userSpaceOnUse">
      <feDropShadow dx="0" dy="10" stdDeviation="10" flood-color="#0F172A" flood-opacity="0.22"/>
    </filter>
  </defs>

  <rect width="256" height="256" rx="64" fill="url(#bg)"/>
  <circle cx="62" cy="58" r="26" fill="#BFDBFE" fill-opacity="0.7"/>
  <circle cx="194" cy="60" r="18" fill="#93C5FD" fill-opacity="0.55"/>

  <g filter="url(#shadow)">
    <rect x="42" y="62" width="172" height="120" rx="18" fill="#FFFFFF" fill-opacity="0.72"/>
    <rect x="54" y="72" width="148" height="92" rx="14" fill="url(#screen)"/>
    <rect x="64" y="82" width="56" height="8" rx="4" fill="#94A3B8" fill-opacity="0.8"/>
    <rect x="64" y="98" width="92" height="8" rx="4" fill="#CBD5E1" fill-opacity="0.85"/>
    <rect x="64" y="116" width="78" height="8" rx="4" fill="#E2E8F0" fill-opacity="0.8"/>
    <rect x="64" y="136" width="104" height="10" rx="5" fill="url(#glow)"/>
    <circle cx="171" cy="101" r="16" fill="#0EA5E9" fill-opacity="0.18"/>
    <path d="M164 101L170 107L180 95" stroke="#38BDF8" stroke-width="3.5" stroke-linecap="round" stroke-linejoin="round"/>
    <rect x="88" y="160" width="80" height="10" rx="5" fill="#94A3B8" fill-opacity="0.55"/>
  </g>

  <g filter="url(#shadow)">
    <rect x="30" y="150" width="196" height="42" rx="21" fill="url(#desk)"/>
    <rect x="68" y="194" width="120" height="10" rx="5" fill="#334155"/>
    <rect x="76" y="202" width="104" height="8" rx="4" fill="#94A3B8" fill-opacity="0.55"/>
  </g>

  <rect x="28" y="196" width="200" height="22" rx="11" fill="#0F172A" fill-opacity="0.18"/>
</svg>
